HIERARCHY
ROOT Hips
{
	OFFSET 0.000000 89.005402 0.000000
	CHANNELS 6 Xposition Yposition Zposition Xrotation Yrotation Zrotation
	JOINT Spine
	{
		OFFSET 0.116900 10.681000 0.373400
		CHANNELS 3 Xrotation Yrotation Zrotation
		JOINT Spine1
		{
			OFFSET 0.000000 13.840401 0.053500
			CHANNELS 3 Xrotation Yrotation Zrotation
			JOINT Spine2
			{
				OFFSET 0.000000 14.712700 -0.366200
				CHANNELS 3 Xrotation Yrotation Zrotation
				JOINT Neck
				{
					OFFSET 0.000000 35.415497 -3.314200
					CHANNELS 3 Xrotation Yrotation Zrotation
					JOINT Head
					{
						OFFSET 0.000000 16.899200 1.218300
						CHANNELS 3 Xrotation Yrotation Zrotation
						JOINT HeadTop_End
						{
							OFFSET 0.000000 22.206207 2.192500
							CHANNELS 3 Xrotation Yrotation Zrotation
							End Site
							{
								OFFSET 0.000000 22.314178 0.000000
							}
						}
					}
				}
				JOINT LeftShoulder
				{
					OFFSET 12.896400 26.716293 -4.548400
					CHANNELS 3 Xrotation Yrotation Zrotation
					JOINT LeftArm
					{
						OFFSET 19.027000 -4.857010 -1.718400
						CHANNELS 3 Xrotation Yrotation Zrotation
						JOINT LeftForeArm
						{
							OFFSET 24.179897 0.000000 0.000000
							CHANNELS 3 Xrotation Yrotation Zrotation
							JOINT LeftHand
							{
								OFFSET 27.156403 0.000000 0.000000
								CHANNELS 3 Xrotation Yrotation Zrotation
								JOINT LeftHandIndex1
								{
									OFFSET 16.441200 0.000000 0.000000
									CHANNELS 3 Xrotation Yrotation Zrotation
									JOINT LeftHandIndex2
									{
										OFFSET 4.821899 0.000000 0.000000
										CHANNELS 3 Xrotation Yrotation Zrotation
										JOINT LeftHandIndex3
										{
											OFFSET 6.386497 0.000000 0.000000
											CHANNELS 3 Xrotation Yrotation Zrotation
											JOINT LeftHandIndex4
											{
												OFFSET 5.188988 0.000000 0.000000
												CHANNELS 3 Xrotation Yrotation Zrotation
												End Site
												{
													OFFSET -0.178703 5.185913 0.000177
												}
											}
										}
									}
								}
								JOINT LeftHandThumb1
								{
									OFFSET 6.534897 -5.032593 5.900300
									CHANNELS 3 Xrotation Yrotation Zrotation
									JOINT LeftHandThumb2
									{
										OFFSET 3.818176 -2.204422 2.204423
										CHANNELS 3 Xrotation Yrotation Zrotation
										JOINT LeftHandThumb3
										{
											OFFSET 3.252098 -1.877594 1.877601
											CHANNELS 3 Xrotation Yrotation Zrotation
											JOINT LeftHandThumb4
											{
												OFFSET 5.251778 -3.032120 3.032117
												CHANNELS 3 Xrotation Yrotation Zrotation
												End Site
												{
													OFFSET 0.000023 6.780014 0.000000
												}
											}
										}
									}
								}
							}
						}
					}
				}
				JOINT RightShoulder
				{
					OFFSET -12.896300 26.716293 -4.548400
					CHANNELS 3 Xrotation Yrotation Zrotation
					JOINT RightArm
					{
						OFFSET -19.027000 -4.857010 -1.718400
						CHANNELS 3 Xrotation Yrotation Zrotation
						JOINT RightForeArm
						{
							OFFSET -24.179897 0.000000 0.000000
							CHANNELS 3 Xrotation Yrotation Zrotation
							JOINT RightHand
							{
								OFFSET -27.156403 0.000000 0.000000
								CHANNELS 3 Xrotation Yrotation Zrotation
								JOINT RightHandThumb1
								{
									OFFSET -6.591202 -4.852203 5.988100
									CHANNELS 3 Xrotation Yrotation Zrotation
									JOINT RightHandThumb2
									{
										OFFSET -3.818176 -2.204422 2.204423
										CHANNELS 3 Xrotation Yrotation Zrotation
										JOINT RightHandThumb3
										{
											OFFSET -3.252098 -1.877594 1.877601
											CHANNELS 3 Xrotation Yrotation Zrotation
											JOINT RightHandThumb4
											{
												OFFSET -5.251778 -3.032120 3.032117
												CHANNELS 3 Xrotation Yrotation Zrotation
												End Site
												{
													OFFSET -0.000023 6.780014 0.000000
												}
											}
										}
									}
								}
								JOINT RightHandIndex1
								{
									OFFSET -16.029404 0.000000 0.000000
									CHANNELS 3 Xrotation Yrotation Zrotation
									JOINT RightHandIndex2
									{
										OFFSET -5.213303 0.000000 0.000000
										CHANNELS 3 Xrotation Yrotation Zrotation
										JOINT RightHandIndex3
										{
											OFFSET -6.386528 0.000000 0.000000
											CHANNELS 3 Xrotation Yrotation Zrotation
											JOINT RightHandIndex4
											{
												OFFSET -5.189026 0.000000 0.000000
												CHANNELS 3 Xrotation Yrotation Zrotation
												End Site
												{
													OFFSET 0.236702 5.183624 0.001972
												}
											}
										}
									}
								}
							}
						}
					}
				}
			}
		}
	}
	JOINT LeftUpLeg
	{
		OFFSET 14.073000 -7.904099 -1.463000
		CHANNELS 3 Xrotation Yrotation Zrotation
		JOINT LeftLeg
		{
			OFFSET -0.109806 -34.073280 4.093200
			CHANNELS 3 Xrotation Yrotation Zrotation
			JOINT LeftFoot
			{
				OFFSET 0.109806 -29.899420 -6.319000
				CHANNELS 3 Xrotation Yrotation Zrotation
				JOINT LeftToeBase
				{
					OFFSET 1.551100 -14.988700 20.535801
					CHANNELS 3 Xrotation Yrotation Zrotation
					JOINT LeftToe_End
					{
						OFFSET 0.221200 0.570800 13.248301
						CHANNELS 3 Xrotation Yrotation Zrotation
						End Site
						{
							OFFSET 0.000000 13.262435 0.000000
						}
					}
				}
			}
		}
	}
	JOINT RightUpLeg
	{
		OFFSET -13.839300 -7.904099 -1.463000
		CHANNELS 3 Xrotation Yrotation Zrotation
		JOINT RightLeg
		{
			OFFSET 0.109694 -34.073219 4.093300
			CHANNELS 3 Xrotation Yrotation Zrotation
			JOINT RightFoot
			{
				OFFSET -0.109694 -29.899384 -6.319200
				CHANNELS 3 Xrotation Yrotation Zrotation
				JOINT RightToeBase
				{
					OFFSET -1.551100 -14.988700 20.535801
					CHANNELS 3 Xrotation Yrotation Zrotation
					JOINT RightToe_End
					{
						OFFSET -0.221200 0.570900 13.248299
						CHANNELS 3 Xrotation Yrotation Zrotation
						End Site
						{
							OFFSET 0.000000 13.262440 0.000000
						}
					}
				}
			}
		}
	}
}
MOTION
Frames: 7
Frame Time: 0.033333
3.375135 83.860878 -31.182131 -12.268212 -29.788897 -5.814079 10.595670 -6.083490 0.925241 15.965688 -1.678772 0.311862 15.970306 -1.757944 0.401047 0.071168 7.911758 0.816599 -9.959343 22.414663 11.962138 0.000001 0.000000 -0.000001 -37.634493 -4.776374 1.661117 -43.153832 -6.887169 -59.058303 -0.000012 -64.998594 -0.000019 -121.708329 2.176888 29.606148 -0.212819 3.933721 -36.747128 2.942129 5.078904 -60.144610 0.513676 2.400832 -24.150504 -0.000003 0.000001 -0.000002 4.709222 9.560380 3.111992 19.473185 -1.474925 7.636923 -4.536192 -9.613099 1.492978 -0.000002 0.000005 -0.000002 -40.943084 -7.816177 -9.258532 -51.559182 57.966115 105.255298 -0.000563 96.465330 0.000540 -46.880168 -16.180986 -28.393469 8.377139 -4.904148 11.022013 21.620168 -18.183888 -18.379214 -0.702858 -49.821206 -32.535138 0.000001 -0.000001 0.000001 -0.920030 1.683585 12.434993 0.748117 -2.533471 32.898296 0.615653 -2.316054 29.767836 -0.000000 -0.000000 0.000000 -9.991462 47.934039 17.713710 31.307265 -8.932378 -0.603731 -18.142813 1.263921 1.003986 0.002992 0.000001 0.000001 0.000000 0.000001 0.000000 -13.589244 6.293873 -5.993076 49.811842 3.483354 3.978499 -14.967733 -17.826765 9.431687 -0.485239 0.146618 -3.037679 -0.000000 -0.000000 -0.000000 
3.453176 83.990959 -32.488659 -12.392592 -30.669134 -5.691443 9.644074 -5.264607 0.555429 15.946574 -1.477975 0.135030 15.951728 -1.555354 0.212956 0.099379 7.843484 0.807741 -9.383269 22.295894 11.771602 -0.000001 0.000000 -0.000000 -37.593044 -4.405546 1.671748 -42.478657 -8.155913 -59.744279 -0.000045 -64.301081 -0.000017 -121.913768 1.848482 29.220116 -0.212819 3.933715 -36.747131 2.942128 5.078906 -60.144610 0.513676 2.400832 -24.150511 -0.000001 -0.000000 0.000002 4.709222 9.560375 3.111991 19.473185 -1.474925 7.636927 -4.536190 -9.613098 1.492980 -0.000001 0.000001 0.000000 -40.957824 -8.010168 -9.329063 -49.523629 57.896283 104.306933 0.000106 96.936053 -0.000106 -46.928850 -16.401770 -28.320363 8.377141 -4.904147 11.022011 21.620168 -18.183888 -18.379213 -0.702858 -49.821206 -32.535142 -0.000001 -0.000000 -0.000000 -0.920030 1.683585 12.434990 0.748117 -2.533471 32.898293 0.615653 -2.316054 29.767832 0.000000 -0.000001 0.000002 -10.613342 47.806096 17.613149 30.767810 -7.704345 -0.585776 -17.055710 1.317197 0.796407 0.002986 -0.000009 0.000003 0.000000 -0.000001 -0.000000 -12.140999 6.023270 -5.770954 52.339617 -1.236457 2.008529 -12.214084 -17.524358 8.054554 -6.918160 -0.481932 2.888207 -0.000000 0.000000 -0.000000 
3.460394 84.052635 -33.774559 -12.500907 -31.383688 -5.623191 8.655100 -4.528351 0.351287 15.934182 -1.302092 -0.022814 15.939459 -1.378572 0.045595 0.104379 7.773594 0.803784 -9.008150 22.052312 11.676711 -0.000001 -0.000000 0.000001 -37.552790 -4.212842 1.515714 -42.058888 -9.301440 -60.357057 -0.000003 -63.529796 -0.000005 -121.954803 1.596408 28.943965 -0.212819 3.933715 -36.747131 2.942130 5.078907 -60.144610 0.513678 2.400833 -24.150509 -0.000002 -0.000001 -0.000000 4.709222 9.560375 3.111992 19.473185 -1.474924 7.636926 -4.536192 -9.613093 1.492977 0.000002 0.000000 0.000000 -40.997367 -8.136993 -9.444714 -47.508996 57.787403 103.121827 -0.000120 97.371757 0.000119 -47.180737 -16.573423 -28.296763 8.377141 -4.904147 11.022012 21.620168 -18.183888 -18.379213 -0.702859 -49.821206 -32.535142 0.000002 -0.000001 -0.000000 -0.920030 1.683585 12.434990 0.748117 -2.533472 32.898296 0.615653 -2.316054 29.767836 0.000000 -0.000000 -0.000001 -11.566221 47.581850 17.898227 30.490432 -6.694001 -0.583536 -16.027384 1.356552 0.633799 0.002990 -0.000003 0.000000 0.000000 -0.000000 -0.000000 -8.907966 5.555275 -5.163762 52.164583 -3.382161 -0.096007 -12.029123 -21.778833 4.851389 -6.956875 -1.552820 10.189306 0.000000 0.000001 0.000000 
3.364327 84.121002 -35.073357 -12.383483 -32.302157 -5.667070 7.890270 -3.797662 0.390200 15.920155 -1.122937 -0.156757 15.925204 -1.198679 -0.095775 0.070816 7.699646 0.790360 -8.902592 21.716696 11.595177 -0.000001 0.000001 0.000000 -37.525414 -4.185404 1.315367 -41.948502 -10.262175 -60.850114 -0.000084 -62.768079 -0.000070 -121.986646 1.427414 28.716632 -0.212819 3.933716 -36.747128 2.942125 5.078909 -60.144610 0.513676 2.400832 -24.150512 -0.000003 0.000000 -0.000003 4.709222 9.560381 3.111992 19.473189 -1.474924 7.636928 -4.536191 -9.613096 1.492975 0.000001 0.000002 -0.000000 -41.051964 -8.209420 -9.585300 -45.862459 57.656741 101.921210 0.000235 97.776125 -0.000232 -47.522547 -16.711484 -28.411311 8.377141 -4.904147 11.022012 21.620170 -18.183890 -18.379213 -0.702859 -49.821206 -32.535142 -0.000002 -0.000002 -0.000001 -0.920029 1.683585 12.434990 0.748117 -2.533470 32.898299 0.615653 -2.316054 29.767836 -0.000000 -0.000000 -0.000001 -12.993818 47.206125 18.679261 30.250122 -5.543198 -0.610756 -14.946450 1.432771 0.304506 0.002991 0.000001 -0.000001 -0.000000 0.000001 0.000000 -3.576952 5.743841 -4.873121 48.721570 -5.411044 -2.566841 -14.576628 -25.467680 4.846258 -5.432876 -1.004871 8.996847 0.000000 -0.000003 0.000001 
3.268643 84.044624 -35.826172 -12.232865 -32.955612 -5.753484 7.375449 -2.830679 0.599056 15.874230 -0.872631 -0.292779 15.878720 -0.946666 -0.238987 0.000253 7.620525 0.747100 -9.027142 21.429780 11.457430 0.000002 -0.000000 0.000003 -37.510921 -4.254690 1.209521 -42.153417 -11.116053 -61.310968 0.000060 -61.956421 0.000065 -122.115750 1.321257 28.463423 -0.212819 3.933717 -36.747128 2.942125 5.078907 -60.144610 0.513677 2.400833 -24.150502 -0.000002 0.000001 -0.000003 4.709222 9.560376 3.111992 19.473187 -1.474924 7.636928 -4.536194 -9.613098 1.492977 0.000001 0.000001 -0.000000 -41.085251 -8.325116 -9.682987 -44.716559 57.561050 100.769736 0.000083 98.171450 -0.000094 -47.952436 -16.859547 -28.701220 8.377140 -4.904148 11.022012 21.620170 -18.183890 -18.379213 -0.702857 -49.821206 -32.535142 -0.000002 0.000001 -0.000000 -0.920029 1.683584 12.434990 0.748117 -2.533469 32.898299 0.615653 -2.316053 29.767829 -0.000000 -0.000000 0.000002 -14.330331 46.848821 19.593578 30.655808 -4.778464 -0.643455 -14.623073 1.493056 0.051731 0.002993 -0.000006 0.000001 0.000000 0.000000 -0.000000 0.538303 6.261826 -5.875158 44.673221 -5.655552 -3.680853 -15.252675 -24.862981 9.012796 -5.590644 -0.691706 7.514532 -0.000000 0.000001 0.000000 
3.027820 83.598312 -37.111244 -11.948333 -34.649956 -5.973838 7.134542 -1.406109 0.975078 15.789463 -0.491659 -0.449437 15.793014 -0.563603 -0.404493 -0.080451 7.547263 0.634655 -9.336218 21.293089 11.277405 0.000000 -0.000000 0.000000 -37.499262 -4.338058 1.204305 -42.662874 -11.881082 -61.870695 0.000009 -61.041025 -0.000002 -122.250947 1.290160 28.120203 -0.212819 3.933716 -36.747128 2.942128 5.078906 -60.144610 0.513676 2.400832 -24.150509 -0.000003 0.000000 -0.000000 4.709221 9.560381 3.111992 19.473185 -1.474925 7.636926 -4.536191 -9.613099 1.492974 0.000003 -0.000001 0.000001 -41.074627 -8.497874 -9.688031 -43.914882 57.589150 99.510139 0.000098 98.541427 -0.000094 -48.474423 -16.938039 -29.107080 8.377140 -4.904147 11.022012 21.620170 -18.183890 -18.379213 -0.702856 -49.821206 -32.535135 0.000001 0.000000 -0.000001 -0.920030 1.683586 12.434990 0.748117 -2.533470 32.898296 0.615653 -2.316055 29.767829 -0.000000 -0.000000 0.000001 -17.258392 45.968454 21.841140 32.491876 -3.081988 -0.717803 -14.634966 1.658231 -0.700605 0.002985 0.000003 0.000000 0.000000 0.000000 -0.000000 4.070896 6.677140 -7.470619 39.959007 -4.800452 -3.615770 -17.394033 -23.514041 11.589706 -4.846013 -0.357013 5.449985 -0.000000 0.000001 -0.000000 
2.765720 83.246727 -38.436417 -11.988459 -36.773472 -6.597498 7.303787 0.263852 1.294624 15.732209 -0.043787 -0.606157 15.734697 -0.114716 -0.571734 -0.117540 7.499427 0.463577 -9.758621 21.329071 11.105687 -0.000001 0.000001 -0.000002 -37.489549 -4.428818 1.229438 -43.371630 -12.251251 -62.478548 0.000018 -60.266249 0.000014 -122.149600 1.363984 27.777225 -0.212819 3.933717 -36.747131 2.942129 5.078904 -60.144610 0.513673 2.400832 -24.150512 0.000003 0.000001 -0.000002 4.709222 9.560375 3.111991 19.473185 -1.474930 7.636928 -4.536191 -9.613097 1.492978 -0.000001 -0.000004 0.000001 -41.031535 -8.606680 -9.607232 -43.386956 57.766844 98.175391 0.000516 98.783981 -0.000503 -48.983873 -16.808428 -29.454750 8.377140 -4.904147 11.022013 21.620172 -18.183890 -18.379213 -0.702858 -49.821206 -32.535135 0.000001 -0.000001 0.000000 -0.920029 1.683585 12.434992 0.748117 -2.533470 32.898299 0.615653 -2.316055 29.767832 -0.000000 -0.000000 0.000002 -19.665860 44.976949 24.198771 33.927780 -1.011808 -0.791067 -14.386105 1.883752 -1.820057 0.002989 0.000009 -0.000000 0.000000 -0.000001 -0.000000 5.573157 6.652955 -8.625497 36.215818 -2.885617 -2.567815 -19.309278 -21.971173 11.655871 -3.664577 -0.165718 3.742004 0.000000 0.000001 -0.000000 
